<?xml version="1.0" encoding="UTF-8" standalone="no"?>
<svg width="20px" height="19px" viewBox="0 0 20 19" version="1.1" xmlns="http://www.w3.org/2000/svg" xmlns:xlink="http://www.w3.org/1999/xlink">
    <!-- Generator: Sketch 3.8.2 (29753) - http://www.bohemiancoding.com/sketch -->
    <title>instagram</title>
    <desc>Created with Sketch.</desc>
    <defs></defs>
    <g id="Home" stroke="none" stroke-width="1" fill="none" fill-rule="evenodd">
        <g id="HomePage_Phone" transform="translate(-166.000000, -533.000000)" fill="#C3AA5B">
            <g id="Social" transform="translate(0.000000, 514.000000)">
                <g transform="translate(95.000000, 19.000000)" id="instagram">
                    <path d="M88.3106727,1.4062825e-15 L73.6529636,1.4062825e-15 C72.4390303,1.4062825e-15 71.4545455,0.981666667 71.4545455,2.192125 L71.4545455,16.8062917 C71.4545455,18.0183333 72.4390303,19 73.6529636,19 L88.3114667,19 C89.5254,19 90.5090909,18.0183333 90.5090909,16.8062917 L90.5090909,2.192125 C90.5090909,0.981666667 89.5254,0 88.3106727,0 L88.3106727,1.4062825e-15 Z M80.9818182,5.84645833 C83.0055697,5.84645833 84.6466424,7.48125 84.6466424,9.5 C84.6466424,11.5179583 83.0055697,13.1543333 80.9818182,13.1543333 C78.9580667,13.1543333 77.3177879,11.5171667 77.3177879,9.5 C77.3177879,7.48125 78.9580667,5.84645833 80.9818182,5.84645833 L80.9818182,5.84645833 Z M88.1272727,15.8950833 C88.1272727,16.2980417 87.7993758,16.625 87.3936727,16.625 L74.5699636,16.625 C74.1642606,16.625 73.8363636,16.2980417 73.8363636,15.8950833 L73.8363636,7.91666667 L75.3424667,7.91666667 C75.2726,8.16604167 75.2209939,8.42333333 75.1836788,8.685375 C75.1439818,8.95216667 75.1193697,9.22291667 75.1193697,9.5 C75.1193697,12.7292083 77.7441333,15.3464583 80.9818182,15.3464583 C84.219503,15.3464583 86.8442667,12.7292083 86.8442667,9.5 C86.8442667,9.22291667 86.8196545,8.95216667 86.7799576,8.68616667 C86.7426424,8.424125 86.6910364,8.16683333 86.6211697,7.91745833 L88.1272727,7.91745833 L88.1272727,15.8950833 L88.1272727,15.8950833 Z M88.1272727,4.82758333 C88.1272727,5.23054167 87.7993758,5.55829167 87.3936727,5.55829167 L85.6676485,5.55829167 C85.2619455,5.55829167 84.9348424,5.23054167 84.9348424,4.82758333 L84.9348424,3.10570833 C84.9348424,2.70195833 85.2619455,2.375 85.6676485,2.375 L87.3936727,2.375 C87.7993758,2.375 88.1272727,2.70195833 88.1272727,3.10570833 L88.1272727,4.82758333 L88.1272727,4.82758333 Z"></path>
                </g>
            </g>
        </g>
    </g>
</svg>