<?xml version="1.0" encoding="UTF-8" standalone="no"?>
<svg width="48px" height="29px" viewBox="0 0 48 29" version="1.1" xmlns="http://www.w3.org/2000/svg" xmlns:xlink="http://www.w3.org/1999/xlink">
    <!-- Generator: Sketch 3.8.2 (29753) - http://www.bohemiancoding.com/sketch -->
    <title>loading</title>
    <desc>Created with Sketch.</desc>
    <defs>
        <linearGradient x1="50%" y1="39.6063113%" x2="50%" y2="100%" id="linearGradient-1">
            <stop stop-color="#B36989" stop-opacity="0" offset="0%"></stop>
            <stop stop-color="#B06686" stop-opacity="0.0607383578" offset="9.22003805%"></stop>
            <stop stop-color="#7C3851" offset="100%"></stop>
        </linearGradient>
    </defs>
    <g id="Page-1" stroke="none" stroke-width="1" fill="none" fill-rule="evenodd">
        <path d="M24,29 C37.254834,29 48,18.254834 48,5 C48,-8.254834 37.254834,-19 24,-19 C10.745166,-19 0,-8.254834 0,5 C0,18.254834 10.745166,29 24,29 L24,29 Z M24,24.3274336 C13.3257532,24.3274336 4.67256637,15.6742468 4.67256637,5 C4.67256637,-5.67424685 13.3257532,-14.3274336 24,-14.3274336 C34.6742468,-14.3274336 43.3274336,-5.67424685 43.3274336,5 C43.3274336,15.6742468 34.6742468,24.3274336 24,24.3274336 L24,24.3274336 Z" id="loading" fill="url(#linearGradient-1)"></path>
    </g>
</svg>