<?xml version="1.0" encoding="UTF-8" standalone="no"?>
<svg width="270px" height="107px" viewBox="0 0 270 107" version="1.1" xmlns="http://www.w3.org/2000/svg" xmlns:xlink="http://www.w3.org/1999/xlink">
    <!-- Generator: Sketch 3.8.2 (29753) - http://www.bohemiancoding.com/sketch -->
    <title>logo-desktop</title>
    <desc>Created with Sketch.</desc>
    <defs></defs>
    <g id="Home" stroke="none" stroke-width="1" fill="none" fill-rule="evenodd">
        <g id="HomePage_Desktop" transform="translate(-135.000000, -97.000000)" fill="#C3BE66">
            <g id="Navigation">
                <g id="logo-desktop" transform="translate(135.000000, 97.000000)">
                    <path d="M4.30724312,11.7806378 C4.30724312,9.03907384 4.2217844,4.49779477 4.17967431,3.72639942 C4.0942156,2.61223081 3.88118807,2.18423081 2.6017844,2.18423081 L0.597220183,2.18423081 C0.341463303,2.18423081 0.298733945,1.97085291 0.298733945,1.75623081 L0.298733945,0.813137791 C0.298733945,0.599759884 0.341463303,0.513288953 0.597220183,0.513288953 C1.06600459,0.513288953 2.6017844,0.641440116 6.14088991,0.641440116 C10.2782064,0.641440116 12.0691239,0.513288953 12.4530688,0.513288953 C12.7936651,0.513288953 12.8370138,0.641440116 12.8370138,0.856684302 L12.8370138,1.84083547 C12.8370138,2.05607965 12.751555,2.18423081 12.4103394,2.18423081 L9.85153211,2.18423081 C8.53001835,2.18423081 8.35910092,2.61223081 8.35910092,3.85517267 C8.35910092,4.41256802 8.23029358,10.8810913 8.23029358,13.8795797 L8.23029358,17.5642366 C8.23029358,18.2920855 8.23029358,27.5469634 8.35910092,29.303132 C9.29666972,29.3896029 17.7409817,29.4742076 19.0637339,29.303132 C21.5791927,28.9180564 24.1386193,23.7758355 24.7355917,22.1048936 C24.8210505,21.9350622 24.9065092,21.8485913 25.0761881,21.9350622 L25.7586193,22.1913645 C25.8868073,22.2765913 25.8868073,22.3201378 25.844078,22.5764401 C25.7165092,22.876289 24.0098119,29.9457541 23.7546743,31.102225 C23.1998119,31.0599227 19.8737339,31.0169983 16.0782523,31.0169983 C12.2821514,30.9734517 8.10272477,30.9734517 5.80029358,30.9734517 C4.13632569,30.9734517 2.90027064,31.0169983 2.00481193,31.0169983 C1.1514633,31.0599227 0.639949541,31.102225 0.341463303,31.102225 C0.0423577982,31.102225 0.000247706422,31.0169983 0.000247706422,30.8023762 L0.000247706422,29.731132 C0.000247706422,29.5177541 0.0423577982,29.4312831 0.298733945,29.4312831 L2.34540826,29.4312831 C3.92329817,29.4312831 4.17967431,28.8315855 4.17967431,28.2748122 C4.17967431,27.4604924 4.30724312,16.7928413 4.30724312,14.1794285 L4.30724312,11.7806378 Z" id="Fill-1"></path>
                    <path d="M39.7909404,13.0232686 C39.7909404,11.9955709 39.6633716,4.28286163 39.6200229,3.64148372 C39.5358028,2.61254186 39.1085092,2.18391977 37.4885092,2.18391977 L35.0145413,2.18391977 C34.8015138,2.18391977 34.673945,2.09931512 34.673945,1.92761744 L34.673945,0.771146512 C34.673945,0.60007093 34.8015138,0.5136 34.9724312,0.5136 C35.483945,0.5136 37.6588073,0.641751163 41.6252064,0.641751163 C45.4206881,0.641751163 46.7849312,0.5136 47.3819037,0.5136 C47.5955505,0.5136 47.6803899,0.641751163 47.6803899,0.813448837 L47.6803899,1.88407093 C47.6803899,2.09931512 47.5528211,2.18391977 47.3397936,2.18391977 L45.3352294,2.18391977 C44.4818807,2.18391977 43.8427982,2.52731512 43.8427982,3.38331512 C43.8427982,3.8131814 43.7139908,13.280193 43.7139908,13.794664 L43.7139908,17.0930012 C43.7139908,17.5222453 43.8427982,27.4185012 43.8427982,27.8888035 C43.8427982,29.2175942 44.4818807,29.4309721 45.8467431,29.4309721 L47.5955505,29.4309721 C47.808578,29.4309721 47.9367661,29.517443 47.9367661,29.7308209 L47.9367661,30.8456116 C47.9367661,31.0166872 47.808578,31.101914 47.5528211,31.101914 C47.0413073,31.101914 45.3352294,30.9737628 41.6252064,30.9737628 C37.5739679,30.9737628 35.7397018,31.101914 35.2709174,31.101914 C35.0572706,31.101914 34.9290826,31.0166872 34.9290826,30.8456116 L34.9290826,29.6891407 C34.9290826,29.517443 35.0572706,29.4309721 35.2709174,29.4309721 L37.6588073,29.4309721 C38.5115367,29.4309721 39.4069954,29.3028209 39.5779128,28.1898965 C39.6633716,27.5472744 39.7909404,18.2923965 39.7909404,16.021757 L39.7909404,13.0232686 Z" id="Fill-3"></path>
                    <path d="M64.3556147,6.21178547 C64.3556147,3.68359942 63.076211,2.27082616 61.5410505,2.22727965 L59.7922431,2.18435523 C59.5792156,2.18435523 59.5371055,2.01265756 59.5371055,1.8845064 L59.5371055,0.771581977 C59.5371055,0.599884302 59.5792156,0.513413372 59.7922431,0.513413372 C60.0052706,0.513413372 60.3471055,0.556337791 60.9861881,0.556337791 C61.6265092,0.599884302 62.5646972,0.641564535 64.0150183,0.641564535 C65.4641009,0.641564535 66.3601789,0.556337791 66.8716927,0.556337791 C67.426555,0.556337791 67.7671514,0.728035465 68.1089862,1.11311105 L77.0641927,12.7667797 C77.5335963,13.3664773 84.7406147,22.2350355 85.7648807,23.6055064 L85.9345596,23.6055064 L85.9345596,18.506832 C85.9345596,14.6940238 85.8924495,12.595082 85.8069908,10.4525936 C85.7648807,8.78227384 85.5506147,4.58314593 85.2954771,3.854675 C84.9536422,2.78405291 84.1436422,2.18435523 82.9496972,2.18435523 L81.5854541,2.18435523 C81.4145367,2.18435523 81.329078,2.09912849 81.329078,1.8845064 L81.329078,0.771581977 C81.329078,0.599884302 81.4145367,0.513413372 81.5854541,0.513413372 C82.1824266,0.513413372 83.5466697,0.641564535 86.2763945,0.641564535 C88.8352018,0.641564535 89.8588486,0.513413372 90.4124725,0.513413372 C90.7109587,0.513413372 90.7543073,0.641564535 90.7543073,0.813262209 L90.7543073,1.8845064 C90.7543073,2.05558198 90.6688486,2.18435523 90.4979312,2.18435523 L89.3467156,2.18435523 C88.1955,2.18435523 87.7688257,2.91220407 87.683367,4.5408436 C87.5130688,7.41118081 87.5130688,11.651989 87.5130688,14.4370994 L87.5130688,30.4603494 C87.5130688,31.0600471 87.4703394,31.4880471 87.299422,31.4880471 C86.7879083,31.4880471 86.4039633,30.9735762 86.2763945,30.8018785 L81.0733211,24.2052041 C78.0878394,20.4776227 74.974789,16.5360413 74.7184128,16.279739 C74.2502477,15.851739 66.4029083,5.95361686 66.1465321,5.61208779 L65.8907752,5.61208779 L65.8907752,15.1220238 C65.8907752,19.1065297 66.2319908,26.0895238 66.3174495,26.9473901 C66.4877477,28.618332 66.7441239,29.4314076 67.8953394,29.4314076 L69.1741239,29.4314076 C69.4738486,29.4314076 69.5159587,29.5608029 69.5159587,29.8177273 L69.5159587,30.7601983 C69.5159587,31.0171227 69.4738486,31.1017273 69.1741239,31.1017273 C68.7480688,31.1017273 66.1898807,30.9735762 65.0380459,30.9735762 C64.1425872,30.9735762 61.1998349,31.1017273 60.7731606,31.1017273 C60.6028624,31.1017273 60.560133,31.0171227 60.560133,30.8018785 L60.560133,29.6889541 C60.560133,29.5608029 60.6028624,29.4314076 60.8158899,29.4314076 L62.266211,29.4314076 C63.5022661,29.4314076 63.9716697,28.9181808 64.1846972,26.819239 C64.270156,26.0042971 64.3556147,21.1202448 64.3556147,13.4946285 L64.3556147,6.21178547 Z" id="Fill-5"></path>
                    <path d="M127.176502,21.5054448 C127.176502,19.9645203 126.707099,19.5346541 125.427695,19.5346541 L123.636778,19.5346541 C123.42375,19.5346541 123.338291,19.4494273 123.338291,19.2783517 L123.338291,18.2071076 C123.338291,17.9508052 123.381021,17.8643343 123.594048,17.8643343 C124.19164,17.8643343 126.110126,17.9924855 129.010768,17.9924855 C132.081089,17.9924855 133.445952,17.8643343 134.042924,17.8643343 C134.341411,17.8643343 134.38414,17.9924855 134.38414,18.1641831 L134.38414,19.193125 C134.38414,19.3635785 134.341411,19.5346541 134.085654,19.5346541 L132.422305,19.5346541 C131.654415,19.5346541 131.099553,19.8345029 131.099553,21.1639157 L131.099553,26.8187413 C131.099553,27.418439 131.27047,27.847061 131.27047,28.1898343 C131.27047,28.5313634 131.015333,28.703061 130.588039,28.8747587 C127.134392,30.6303052 123.722236,31.6163227 118.945837,31.6163227 C115.150356,31.6163227 109.946663,30.2023052 107.00453,26.7322703 C104.403612,23.7760843 103.08086,20.1343517 103.08086,14.9504506 C103.08086,11.0524157 104.744209,6.8968343 107.899989,4.06942151 C110.92758,1.45600872 114.766411,0.000311046512 119.884025,0.000311046512 C123.551938,0.000311046512 126.835906,1.37078198 128.285608,2.4837064 C128.754392,2.87002616 129.010768,2.78355523 129.266525,2.44202616 L129.906227,1.67063081 C130.076525,1.49955523 130.247443,1.28431105 130.50258,1.28431105 C130.801686,1.28431105 130.886525,1.49955523 130.886525,1.79940407 L131.015333,9.9817936 C131.015333,10.1964157 130.971984,10.3681134 130.801686,10.3681134 L130.033796,10.452718 C129.863498,10.452718 129.73531,10.3245669 129.69258,10.1099448 C129.351984,8.91054942 128.626823,6.8968343 127.134392,5.05419477 C125.854989,3.46972384 123.210103,1.54123547 119.371892,1.54123547 C116.429759,1.54123547 113.785493,2.27032849 111.226686,5.01251453 C108.923635,7.45422965 107.473933,11.0094913 107.473933,14.8658459 C107.473933,19.9209738 108.881525,24.3334797 111.525172,26.8610436 C113.657305,28.9176831 116.258842,29.9024564 119.031296,29.9024564 C122.442833,29.9024564 124.532236,29.3027587 126.024667,28.4467587 C127.005585,27.847061 127.176502,26.903968 127.176502,24.676875 L127.176502,21.5054448 Z" id="Fill-7"></path>
                    <path d="M173.45153,24.0339419 C173.45153,27.9749012 174.390337,29.7310698 177.929443,29.7310698 C181.511897,29.7310698 184.795245,28.0184477 184.795245,22.9197733 C184.795245,19.4497384 183.047057,17.1790988 180.53036,16.1930814 C178.782791,15.5087791 176.777608,15.4652326 174.816392,15.4652326 L173.45153,15.4652326 L173.45153,24.0339419 Z M173.45153,14.0095349 C174.26153,14.0941395 174.98669,14.0941395 175.711851,14.0941395 C178.14247,14.0941395 180.062195,13.709686 181.085222,12.9799709 C182.833411,11.6524244 183.473732,9.72518023 183.473732,7.83961628 C183.473732,6.21159884 182.961599,4.49773256 181.383709,3.34188372 C179.849167,2.27063953 177.716415,1.88431977 175.540933,1.88431977 C174.943961,1.88431977 174.474557,1.84077326 174.133961,1.92724419 C173.792126,2.01247093 173.536989,2.31231977 173.536989,2.69863953 C173.49364,3.55526163 173.45153,7.28284302 173.45153,10.8381047 L173.45153,14.0095349 Z M169.698158,12.338593 C169.698158,10.7528779 169.6127,5.52543023 169.570589,4.75465698 C169.443021,2.27063953 168.760589,2.1841686 166.798755,2.1841686 L165.476622,2.1841686 C165.220245,2.1841686 165.135406,2.09894186 165.135406,1.88431977 L165.135406,0.813075581 C165.135406,0.599697674 165.220245,0.513226744 165.476622,0.513226744 C166.159053,0.513226744 168.078158,0.641377907 171.148479,0.641377907 C172.513342,0.641377907 175.07153,0.513226744 176.56458,0.513226744 C179.891278,0.513226744 182.620383,0.813075581 184.112814,1.67094186 C186.544053,2.99848837 187.396782,4.96927907 187.396782,7.49622093 C187.396782,11.7388953 185.521025,12.8082733 182.194328,14.565686 L182.321897,14.6509128 C186.458594,16.0220058 189.231048,18.5937384 189.231048,23.1343953 C189.231048,25.318564 187.908915,28.3182965 185.94708,29.5606163 C184.156163,30.6735407 181.724924,31.1021628 177.801255,31.1021628 C174.858502,31.1021628 173.195154,30.9733895 171.404236,30.9733895 C169.272103,30.9733895 166.756025,31.1021628 165.945406,31.1021628 C165.433892,31.1021628 165.348433,31.016936 165.348433,30.8452384 L165.348433,29.7310698 C165.348433,29.5176919 165.433892,29.4312209 165.732378,29.4312209 L167.779672,29.4312209 C169.101186,29.4312209 169.314213,28.9179942 169.485131,27.5469012 C169.6127,26.5608837 169.698158,20.9060581 169.698158,17.3924767 L169.698158,12.338593 Z" id="Fill-9"></path>
                    <path d="M229.277436,16.5363523 C229.277436,7.15456744 222.624661,1.62789302 217.890991,1.62789302 C217.251289,1.62789302 214.351266,1.1128 211.152138,4.15483488 C208.295463,6.89639884 206.888491,11.2243 206.888491,14.7372593 C206.888491,26.0046081 214.692482,29.989114 218.317665,29.989114 C227.699546,29.989114 229.277436,20.3491605 229.277436,16.5363523 M208.806977,28.8313988 C205.778766,26.9893814 202.538147,22.3628756 202.538147,16.1083523 C202.538147,13.4949395 203.220578,9.42520698 206.504546,5.44070116 C210.256679,0.856497674 214.478835,-0.000124418605 218.061289,-0.000124418605 C220.748284,-0.000124418605 224.24528,0.556648837 227.614087,3.38343953 C230.727757,6.08332326 233.456862,10.281207 233.456862,16.1935791 C233.456862,19.3214628 232.475945,22.5762535 230.258353,25.5766081 C227.657436,29.0460209 223.861954,31.6165093 217.97583,31.6165093 C215.886427,31.6165093 212.176404,30.9315849 208.806977,28.8313988" id="Fill-11"></path>
                    <path d="M254.137872,24.0339419 C254.137872,27.9749012 255.076679,29.7310698 258.615784,29.7310698 C262.198239,29.7310698 265.481587,28.0184477 265.481587,22.9197733 C265.481587,19.4497384 263.733399,17.1790988 261.216702,16.1930814 C259.469133,15.5087791 257.46395,15.4652326 255.502734,15.4652326 L254.137872,15.4652326 L254.137872,24.0339419 Z M254.137872,14.0095349 C254.947872,14.0941395 255.673032,14.0941395 256.398193,14.0941395 C258.828812,14.0941395 260.748537,13.709686 261.771564,12.9799709 C263.519752,11.6524244 264.160073,9.72518023 264.160073,7.83961628 C264.160073,6.21159884 263.64794,4.49773256 262.07005,3.34188372 C260.53489,2.27063953 258.402757,1.88431977 256.227275,1.88431977 C255.630303,1.88431977 255.160899,1.84077326 254.820303,1.92724419 C254.478468,2.01247093 254.22333,2.31231977 254.22333,2.69863953 C254.179982,3.55526163 254.137872,7.28284302 254.137872,10.8381047 L254.137872,14.0095349 Z M250.3845,12.338593 C250.3845,10.7528779 250.299041,5.52543023 250.256931,4.75465698 C250.129362,2.27063953 249.446931,2.1841686 247.485096,2.1841686 L246.162963,2.1841686 C245.906587,2.1841686 245.821748,2.09894186 245.821748,1.88431977 L245.821748,0.813075581 C245.821748,0.599697674 245.906587,0.513226744 246.162963,0.513226744 C246.845394,0.513226744 248.7645,0.641377907 251.834821,0.641377907 C253.199064,0.641377907 255.757872,0.513226744 257.250922,0.513226744 C260.577619,0.513226744 263.306725,0.813075581 264.799156,1.67094186 C267.230394,2.99848837 268.083124,4.96927907 268.083124,7.49622093 C268.083124,11.7388953 266.207367,12.8082733 262.88067,14.565686 L263.008239,14.6509128 C267.144936,16.0220058 269.91739,18.5937384 269.91739,23.1343953 C269.91739,25.318564 268.595257,28.3182965 266.633422,29.5606163 C264.842505,30.6735407 262.411266,31.1021628 258.487596,31.1021628 C255.544844,31.1021628 253.881495,30.9733895 252.090578,30.9733895 C249.958445,30.9733895 247.442367,31.1021628 246.631748,31.1021628 C246.120234,31.1021628 246.034775,31.016936 246.034775,30.8452384 L246.034775,29.7310698 C246.034775,29.5176919 246.120234,29.4312209 246.41872,29.4312209 L248.466014,29.4312209 C249.787528,29.4312209 250.000555,28.9179942 250.171472,27.5469012 C250.299041,26.5608837 250.3845,20.9060581 250.3845,17.3924767 L250.3845,12.338593 Z" id="Fill-14"></path>
                    <path d="M184.248619,74.6899814 C184.334697,74.5195279 184.419537,74.433057 184.590454,74.5195279 L185.271647,74.7764523 C185.401073,74.8616791 185.401073,74.9046035 185.357725,75.1615279 C185.230156,75.4613767 183.524078,82.5308419 183.268321,83.6866907 C182.713459,83.6450105 182.675683,83.6866907 178.880202,83.6866907 L184.248619,74.6899814 Z" id="Fill-16"></path>
                    <path d="M20.9476651,81.974193 C20.4361514,81.5878733 20.1797752,81.4597221 19.9667477,81.4597221 C19.7109908,81.4597221 19.5406927,81.7595709 19.2843165,82.1875709 C19.0291789,82.6591174 18.8155321,82.7020419 18.5170459,82.7020419 C18.261289,82.7020419 18.0476422,82.4874198 18.1331009,82.0158733 C18.3033991,80.9452512 18.7300734,75.5044256 18.8582615,74.2621058 C18.9003716,74.0051814 18.9858303,74.0051814 19.1567477,74.0051814 L19.7958303,74.0487279 C19.9667477,74.0487279 20.0522064,74.1333326 20.0522064,74.390257 C20.0943165,75.76135 20.1797752,77.1753674 21.587367,79.3607802 C22.8667706,81.3744953 25.2125505,82.5309663 27.5583303,82.5309663 C30.1165183,82.5309663 33.3577569,80.9452512 33.3577569,77.0901407 C33.3577569,72.6776349 30.2019771,71.0483733 26.7904404,69.8489779 C25.4689266,69.3780535 22.3979862,68.3068093 20.5637202,66.3795651 C19.1567477,64.9649256 18.4315872,62.9524547 18.4315872,60.1244198 C18.4315872,57.9819314 19.7537202,55.8829895 21.0752339,54.6406698 C22.6110138,53.18435 24.7431468,52.5846523 27.0461972,52.5846523 C29.4774358,52.5846523 31.3538119,53.3131233 32.0783532,53.6558965 C32.4622982,53.8692744 32.675945,53.82635 32.8889725,53.6129721 L33.4432156,53.0978791 C33.6568624,52.9268035 33.7844312,52.8415767 33.9974587,52.8415767 C34.2111055,52.8415767 34.3392936,53.18435 34.3392936,53.5694256 C34.3392936,55.0686698 34.8929174,59.4394953 34.9362661,60.3807221 C34.9362661,60.5959663 34.8929174,60.6805709 34.7226193,60.7241174 L34.2111055,60.8522686 C34.0829174,60.8958151 33.9974587,60.8522686 33.9553486,60.7241174 C33.614133,59.4811756 33.0592706,57.8108558 31.3110826,55.9682163 C30.159867,54.7271407 28.6668165,54.1261988 26.6628716,54.1261988 C22.8667706,54.1261988 21.5025275,56.9542337 21.5025275,59.1396465 C21.5025275,60.3390419 21.7582844,61.7518151 22.8240413,62.8659837 C24.0607156,64.1089256 26.4492248,65.0513965 27.6858991,65.4364721 C30.6280321,66.3795651 33.0171606,67.107414 34.5523211,68.9929779 C35.6608073,70.3205244 36.4286972,71.9914663 36.4286972,74.8195012 C36.4286972,79.874007 33.3577569,84.201286 27.7286284,84.201286 C24.7431468,84.201286 22.6537431,83.3017395 20.9476651,81.974193" id="Fill-18"></path>
                    <path d="M59.8424656,54.7688831 L58.7760894,54.7688831 C57.4118463,54.7688831 53.7012041,54.7688831 52.0378555,55.2833541 C50.11875,55.8830517 48.8393463,58.8815401 48.2423739,60.2526331 C48.1569151,60.4672552 48.0293463,60.5108017 47.8163188,60.4672552 L47.0484289,60.2526331 C46.9202408,60.2109529 46.792672,60.1674064 46.8775115,59.9092378 C47.3041858,58.3683134 48.7972362,52.841639 48.8820757,52.3700924 C48.9669151,51.8139413 49.1378326,51.6839238 49.30875,51.6839238 C49.5217775,51.6839238 49.6493463,51.7274703 49.8202638,51.8556215 L50.3751261,52.2419413 C51.1423968,52.7980924 51.5690711,52.9268657 52.8057454,52.9697901 C55.0660665,53.0550169 56.8569839,53.2267145 60.8654931,53.2267145 L62.9127867,53.2267145 C67.561617,53.2267145 69.3952638,53.0550169 71.4846674,52.9697901 C72.4234748,52.9268657 72.9777179,52.7980924 73.7028784,52.3700924 L74.5128784,51.8556215 C74.7265252,51.7274703 74.854094,51.6839238 75.0250115,51.6839238 C75.238039,51.6839238 75.3234977,51.8139413 75.4089564,52.3700924 C75.4944151,52.8845634 76.3044151,58.1966157 76.6450115,60.0809355 C76.6883601,60.2955576 76.6029014,60.3807843 76.3898739,60.4243308 L75.7074427,60.5954064 C75.5365252,60.6389529 75.4944151,60.5954064 75.3656078,60.2955576 C75.0250115,59.4812378 73.7456078,56.1829006 72.3380161,55.496732 C71.0586124,54.8553541 67.0501032,54.7688831 64.959461,54.7688831 L63.7655161,54.7688831 L63.7655161,66.9787029 C63.7655161,67.5784006 63.7655161,79.5742203 63.8088647,80.3033134 C63.8937041,81.3745576 64.2349197,82.0159355 65.2579472,82.0159355 L67.9455619,82.0159355 C68.3288876,82.0159355 68.371617,82.1459529 68.371617,82.4458017 L68.371617,83.3453483 C68.371617,83.5587262 68.3288876,83.6868773 67.9455619,83.6868773 C67.5188876,83.6868773 66.1546445,83.5587262 61.9745986,83.5587262 C57.8806307,83.5587262 56.089094,83.6868773 55.4921216,83.6868773 C55.1515252,83.6868773 55.1081766,83.5164238 55.1081766,83.2588773 L55.1081766,82.4458017 C55.1081766,82.1459529 55.1515252,82.0159355 55.4066628,82.0159355 L58.307305,82.0159355 C59.1600344,82.0159355 59.6715482,81.5027087 59.7148968,80.9882378 C59.8424656,79.7452959 59.8424656,66.5942494 59.8424656,65.7793076 L59.8424656,54.7688831 Z" id="Fill-20"></path>
                    <path d="M130.810603,76.6187808 C130.810603,80.5597401 131.748172,82.3159087 135.288516,82.3159087 C138.87097,82.3159087 142.154319,80.6032866 142.154319,75.5046122 C142.154319,72.0345773 140.406131,69.7639378 137.890053,68.7779203 C136.141865,68.093618 134.136681,68.0500715 132.175466,68.0500715 L130.810603,68.0500715 L130.810603,76.6187808 Z M130.810603,66.5943738 C131.620603,66.6789785 132.345764,66.6789785 133.070924,66.6789785 C135.501544,66.6789785 137.421268,66.294525 138.444296,65.5648099 C140.192484,64.2372634 140.832805,62.3100192 140.832805,60.4244552 C140.832805,58.7964378 140.320672,57.0825715 138.742782,55.9267227 C137.207002,54.8554785 135.075489,54.4691587 132.900007,54.4691587 C132.303034,54.4691587 131.833631,54.4256122 131.493034,54.5120831 C131.1512,54.5973099 130.896062,54.8971587 130.896062,55.2834785 C130.852713,56.1401006 130.810603,59.867682 130.810603,63.4229436 L130.810603,66.5943738 Z M127.057232,64.923432 C127.057232,63.3377169 126.972392,58.1102692 126.929663,57.3394959 C126.802094,54.8554785 126.119663,54.7690076 124.157828,54.7690076 L122.835695,54.7690076 C122.579319,54.7690076 122.494479,54.6837808 122.494479,54.4691587 L122.494479,53.3979145 C122.494479,53.1845366 122.579319,53.0980657 122.835695,53.0980657 C123.518126,53.0980657 125.437232,53.2262169 128.507553,53.2262169 C129.871796,53.2262169 132.431222,53.0980657 133.923654,53.0980657 C137.250351,53.0980657 139.979456,53.3979145 141.471888,54.2557808 C143.903126,55.5833273 144.755856,57.554118 144.755856,60.0810599 C144.755856,64.3237343 142.880099,65.3931122 139.553401,67.150525 L139.68097,67.2357517 C143.817667,68.6068448 146.590122,71.1785773 146.590122,75.7192343 C146.590122,77.9034029 145.267989,80.9031355 143.306154,82.1454552 C141.515236,83.2583797 139.083998,83.6870017 135.160947,83.6870017 C132.217576,83.6870017 130.554227,83.5582285 128.76331,83.5582285 C126.631177,83.5582285 124.115099,83.6870017 123.304479,83.6870017 C122.792966,83.6870017 122.707507,83.601775 122.707507,83.4300773 L122.707507,82.3159087 C122.707507,82.1025308 122.792966,82.0160599 123.091452,82.0160599 L125.138745,82.0160599 C126.460259,82.0160599 126.673287,81.5028331 126.844204,80.1317401 C126.972392,79.1457227 127.057232,73.4908971 127.057232,69.9773157 L127.057232,64.923432 Z" id="Fill-22"></path>
                    <path d="M203.48358,67.150525 C203.825415,67.150525 208.388167,66.9788273 208.899062,66.8936006 C210.136356,66.6789785 210.477571,66.3362052 210.860897,65.0086587 C210.990323,64.5800366 211.159383,63.7227924 211.202732,62.9090948 C211.202732,62.6944727 211.3303,62.609868 211.501218,62.609868 L212.566975,62.6515483 C212.781241,62.6515483 212.865461,62.8232459 212.822732,62.9943215 C212.695163,63.7227924 212.695163,67.2357517 212.695163,67.8783738 C212.695163,69.377618 212.865461,71.4348797 212.951539,72.3344262 C212.951539,72.5490483 212.865461,72.634275 212.695163,72.6771994 L211.756356,72.8059727 C211.543947,72.8488971 211.457869,72.7195017 211.416378,72.4196529 C211.3303,71.8628797 211.074544,70.8768622 210.946975,70.407182 C210.691837,69.5057692 210.222433,68.8643913 209.113328,68.7362401 C207.108144,68.521618 204.166631,68.521618 203.48358,68.521618 L203.48358,71.1779552 C203.48358,73.490275 203.56842,77.6464785 203.56842,78.5031006 C203.611149,80.7314378 204.677525,81.5880599 205.999039,81.8443622 C206.853007,82.0160599 208.089681,82.1454552 209.156057,82.1454552 C209.880599,82.1454552 212.013351,82.1025308 212.90881,82.0160599 C213.633351,81.9308331 215.510346,81.4592866 216.618213,80.5168157 C217.130346,80.0888157 219.518236,77.0038564 220.115209,76.0190831 C220.244635,75.804461 220.372204,75.6327634 220.627961,75.7609145 L221.311011,76.1472343 C221.52342,76.2753855 221.52342,76.4041587 221.395232,76.746932 L219.13553,83.0450017 C219.007342,83.4300773 218.708856,83.6870017 218.196722,83.6870017 C217.983076,83.6870017 217.046126,83.6446994 214.48608,83.601775 C211.927273,83.601775 207.791195,83.5582285 201.139039,83.5582285 C199.56053,83.5582285 198.366585,83.601775 197.512617,83.601775 C196.618397,83.6446994 196.062915,83.6870017 195.680209,83.6870017 C195.423213,83.6870017 195.295644,83.601775 195.295644,83.3871529 L195.295644,82.230682 C195.295644,82.0589843 195.423213,82.0160599 195.7217,82.0160599 L197.427778,82.0160599 C199.389612,82.0160599 199.56053,81.716211 199.56053,80.1317401 L199.56053,65.779432 C199.56053,62.2235483 199.47569,56.8679494 199.432342,56.4399494 C199.262044,55.0688564 198.835369,54.7690076 197.25686,54.7690076 L195.7217,54.7690076 C195.509291,54.7690076 195.381722,54.7273273 195.381722,54.4691587 L195.381722,53.3126878 C195.381722,53.1845366 195.465943,53.0980657 195.680209,53.0980657 C196.618397,53.0980657 198.109589,53.2262169 200.924773,53.2262169 L202.801768,53.2262169 C207.023924,53.2262169 211.245461,53.1845366 215.467617,53.1845366 C216.150667,53.1845366 216.960048,53.0980657 217.173695,53.0980657 C217.386103,53.0980657 217.472181,53.1845366 217.514911,53.3126878 L219.689154,60.2110773 C219.732502,60.3809087 219.732502,60.5109262 219.561585,60.5955308 L218.921264,60.9389262 C218.793695,61.0241529 218.622778,60.8953797 218.581287,60.810775 C218.495209,60.6390773 215.339429,56.5681006 214.316401,55.9267227 C213.420943,55.327025 212.225759,54.811932 211.074544,54.7690076 L203.48358,54.5973099 L203.48358,67.150525 Z" id="Fill-24"></path>
                    <path d="M236.324002,81.974193 C235.811869,81.5878733 235.556112,81.4597221 235.342466,81.4597221 C235.087328,81.4597221 234.916411,81.7595709 234.660654,82.1875709 C234.404278,82.6591174 234.19125,82.7020419 233.892764,82.7020419 C233.636388,82.7020419 233.423979,82.4874198 233.5082,82.0158733 C233.679117,80.9452512 234.105791,75.5044256 234.23336,74.2621058 C234.276089,74.0051814 234.362167,74.0051814 234.531846,74.0051814 L235.171548,74.0487279 C235.342466,74.0487279 235.427305,74.1333326 235.427305,74.390257 C235.470034,75.76135 235.556112,77.1753674 236.962466,79.3607802 C238.242489,81.3744953 240.587649,82.5309663 242.933429,82.5309663 C245.492236,82.5309663 248.734094,80.9452512 248.734094,77.0901407 C248.734094,72.6776349 245.578314,71.0483733 242.166158,69.8489779 C240.844025,69.3780535 237.773085,68.3068093 235.939438,66.3795651 C234.531846,64.9649256 233.807305,62.9524547 233.807305,60.1244198 C233.807305,57.9819314 235.128819,55.8829895 236.451571,54.6406698 C237.987351,53.18435 240.119484,52.5846523 242.421296,52.5846523 C244.852534,52.5846523 246.72953,53.3131233 247.454071,53.6558965 C247.838635,53.8692744 248.051044,53.82635 248.26469,53.6129721 L248.818933,53.0978791 C249.03258,52.9268035 249.160149,52.8415767 249.373796,52.8415767 C249.586204,52.8415767 249.714392,53.18435 249.714392,53.5694256 C249.714392,55.0686698 250.269255,59.4394953 250.311365,60.3807221 C250.311365,60.5959663 250.269255,60.6805709 250.098956,60.7241174 L249.586204,60.8522686 C249.458635,60.8958151 249.373796,60.8522686 249.331067,60.7241174 C248.989232,59.4811756 248.435608,57.8108558 246.686181,55.9682163 C245.535585,54.7271407 244.043154,54.1261988 242.03797,54.1261988 C238.242489,54.1261988 236.878245,56.9542337 236.878245,59.1396465 C236.878245,60.3390419 237.133383,61.7518151 238.199759,62.8659837 C239.436433,64.1089256 241.824323,65.0513965 243.061617,65.4364721 C246.004369,66.3795651 248.392259,67.107414 249.928039,68.9929779 C251.037144,70.3205244 251.803796,71.9914663 251.803796,74.8195012 C251.803796,79.874007 248.734094,84.201286 243.104346,84.201286 C240.119484,84.201286 238.028842,83.3017395 236.324002,81.974193" id="Fill-26"></path>
                    <path d="M90.8488693,70.1071465 C91.1473555,69.0359023 95.198594,58.0684023 95.4116216,57.511007 C95.5398096,57.1676116 95.7101078,56.8677628 95.8810252,56.8677628 C96.008594,56.8677628 96.0940528,57.1676116 96.2222408,57.4687047 C96.4352683,58.1107047 99.8895344,68.8212802 100.273479,70.1071465 L90.8488693,70.1071465 Z M184.252149,74.6813965 C184.231713,74.6720651 184.211278,74.6627337 184.190222,74.6534023 C184.293021,74.6994372 178.452103,83.1431058 177.86442,83.8759314 C175.461048,86.8706872 172.80997,89.6732163 169.885796,92.1603442 C156.343686,103.679019 138.075956,107.47503 122.494603,98.2089547 C111.532975,91.6900419 108.076232,80.9278326 104.0027,69.1908035 C102.008044,63.443286 100.353984,57.5813035 98.5296261,51.7765535 C96.972172,52.7246233 95.4147179,53.6733151 93.8566445,54.622007 C94.3235711,55.9147163 93.8374472,57.337443 93.3544197,58.6239314 C90.8079977,65.4059895 88.262195,72.1874256 85.7157729,78.9694837 C85.2463693,80.2192686 84.5880894,81.6419953 83.2888693,81.9294023 C82.6751766,82.0650186 82.0094656,81.9094953 81.4230206,82.1371814 C80.837195,82.3648674 80.5083647,83.3166698 81.0774702,83.5841698 C84.3886858,83.5879023 87.6999014,83.5916349 91.011117,83.5953674 C91.1467362,83.0871174 91.0916216,82.5303442 90.8587775,82.0587977 C90.2097867,81.8609721 89.5143509,82.0444895 88.8368739,82.0563093 C88.1587775,82.0687512 87.3617821,81.7968965 87.1896261,81.1381 C87.0992133,80.79035 87.2094427,80.4258035 87.3202913,80.0842744 C88.2392821,77.2444198 89.2344427,74.4288267 90.3039151,71.6424721 C93.8126766,71.6331407 97.3214381,71.6231872 100.8302,71.6132337 L104.634351,82.2267628 C114.25403,106.970513 140.177745,111.883803 160.199856,102.441676 C163.057149,101.094222 165.791209,99.4774023 168.294282,97.5451814 C175.782447,91.764693 181.464213,83.8211872 185.31419,75.159164 C184.95997,74.9999081 184.606369,74.8406523 184.252149,74.6813965 L184.252149,74.6813965 Z" id="Fill-28"></path>
                    <path d="M163.821076,64.3654145 C163.821076,61.6238506 163.734998,57.0825715 163.693507,56.3111762 C163.607429,55.1970076 163.395021,54.7690076 162.114998,54.7690076 L160.110433,54.7690076 C159.854677,54.7690076 159.811947,54.5556297 159.811947,54.3410076 L159.811947,53.3979145 C159.811947,53.1845366 159.854677,53.0980657 160.110433,53.0980657 C160.579218,53.0980657 162.114998,53.2262169 165.654722,53.2262169 C169.7908,53.2262169 171.582956,53.0980657 171.966282,53.0980657 C172.307498,53.0980657 172.350846,53.2262169 172.350846,53.441461 L172.350846,54.4256122 C172.350846,54.6408564 172.264768,54.7690076 171.922933,54.7690076 L169.364745,54.7690076 C168.043232,54.7690076 167.872314,55.1970076 167.872314,56.4399494 C167.872314,56.9973448 167.744126,63.465868 167.744126,66.4643564 L167.744126,70.1490134 C167.744126,70.8768622 167.744126,80.1317401 167.872314,81.8879087 C168.810502,81.9743797 175.727085,82.0589843 177.049837,81.8879087 L175.590846,83.601775 C171.795365,83.5582285 167.616557,83.5582285 165.313507,83.5582285 C163.650158,83.5582285 162.413484,83.601775 161.518025,83.601775 C160.665296,83.6446994 160.153163,83.6870017 159.854677,83.6870017 C159.55619,83.6870017 159.513461,83.601775 159.513461,83.3871529 L159.513461,82.3159087 C159.513461,82.1025308 159.55619,82.0160599 159.811947,82.0160599 L161.859241,82.0160599 C163.436511,82.0160599 163.693507,81.4163622 163.693507,80.859589 C163.693507,80.0452692 163.821076,69.377618 163.821076,66.7642052 L163.821076,64.3654145 Z" id="Fill-31"></path>
                </g>
            </g>
        </g>
    </g>
</svg>