<?xml version="1.0" encoding="UTF-8" standalone="no"?>
<svg width="19px" height="17px" viewBox="0 0 19 17" version="1.1" xmlns="http://www.w3.org/2000/svg" xmlns:xlink="http://www.w3.org/1999/xlink">
    <!-- Generator: Sketch 3.8.2 (29753) - http://www.bohemiancoding.com/sketch -->
    <title>twitter</title>
    <desc>Created with Sketch.</desc>
    <defs></defs>
    <g id="Home" stroke="none" stroke-width="1" fill="none" fill-rule="evenodd">
        <g id="HomePage_Phone" transform="translate(-126.000000, -534.000000)" fill="#C3AA5B">
            <g id="Social" transform="translate(0.000000, 514.000000)">
                <g transform="translate(95.000000, 19.000000)" id="twitter">
                    <path d="M50.0181818,3.41129167 C49.3171333,3.721625 48.5636848,3.930625 47.7729212,4.02483333 C48.5803576,3.54270833 49.2004242,2.77875 49.4918,1.86833333 C48.7367636,2.31483333 47.8999515,2.63941667 47.0091515,2.814375 C46.2969879,2.05675 45.2799515,1.58333333 44.1557333,1.58333333 C41.6318,1.58333333 39.7771576,3.93141667 40.3472061,6.36895833 C37.0992,6.20666667 34.2187879,4.655 32.2903091,2.296625 C31.2661273,4.04858333 31.7591636,6.34045833 33.4994788,7.50104167 C32.8595636,7.48045833 32.2561697,7.3055 31.7297879,7.013375 C31.6869152,8.81916667 32.9850061,10.5085833 34.8650545,10.884625 C34.3148545,11.0334583 33.7122545,11.0682917 33.0993333,10.951125 C33.5963394,12.499625 35.0397212,13.6261667 36.7514545,13.6578333 C35.108,14.9427083 33.0374061,15.5166667 30.9636364,15.2728333 C32.6936303,16.3787917 34.7491394,17.024 36.9562909,17.024 C44.2144848,17.024 48.3151818,10.9115417 48.0674727,5.42925 C48.8312424,4.87904167 49.4941818,4.19266667 50.0181818,3.41129167 L50.0181818,3.41129167 Z"></path>
                </g>
            </g>
        </g>
    </g>
</svg>