<?xml version="1.0" encoding="UTF-8" standalone="no"?>
<svg width="200px" height="21px" viewBox="0 0 200 21" version="1.1" xmlns="http://www.w3.org/2000/svg" xmlns:xlink="http://www.w3.org/1999/xlink">
    <!-- Generator: Sketch 3.8.2 (29753) - http://www.bohemiancoding.com/sketch -->
    <title>Logo</title>
    <desc>Created with Sketch.</desc>
    <defs>
        <polygon id="path-1" points="11.1599258 0.0474548148 0.0698439004 0.0474548148 0.0698439004 11.7842397 11.1599258 11.7842397 11.1599258 0.0474548148"></polygon>
        <polygon id="path-3" points="6.9735023 11.7447473 6.9735023 0.149573926 0.159369696 0.149573926 0.159369696 11.7447473 6.9735023 11.7447473"></polygon>
        <polygon id="path-5" points="0.0223255434 20.3051852 38.9163594 20.3051852 38.9163594 0.0813576296 0.0223255434 0.0813576296"></polygon>
    </defs>
    <g id="Home" stroke="none" stroke-width="1" fill="none" fill-rule="evenodd">
        <g id="HomePage_Phone" transform="translate(-20.000000, -27.000000)">
            <g id="Navigation" transform="translate(0.000000, -16.000000)">
                <g id="Logo" transform="translate(20.000000, 43.000000)">
                    <path d="M174.694977,8.66545452 C174.727005,8.60294193 174.758571,8.57122933 174.822166,8.60294193 L175.075622,8.69716711 C175.123779,8.72842341 175.123779,8.74416563 175.10765,8.83839081 C175.060184,8.94835822 174.425392,11.5410338 174.33023,11.964933 C174.123779,11.9496471 174.109724,11.964933 172.697512,11.964933 L174.694977,8.66545452 Z" id="Fill-1" fill="#C3BE66"></path>
                    <path d="M1.60262673,4.87899378 C1.60262673,3.87354489 1.57082949,2.20806341 1.55516129,1.9251597 C1.52336406,1.51654637 1.44410138,1.35958044 0.968064516,1.35958044 L0.222211982,1.35958044 C0.127050691,1.35958044 0.111152074,1.28132563 0.111152074,1.20261452 L0.111152074,0.856741926 C0.111152074,0.778487111 0.127050691,0.746774519 0.222211982,0.746774519 C0.396635945,0.746774519 0.968064516,0.793773037 2.28488479,0.793773037 C3.82428571,0.793773037 4.49064516,0.746774519 4.6335023,0.746774519 C4.76023041,0.746774519 4.77635945,0.793773037 4.77635945,0.872712296 L4.77635945,1.23364267 C4.77635945,1.31258193 4.74456221,1.35958044 4.61760369,1.35958044 L3.66552995,1.35958044 C3.17382488,1.35958044 3.11023041,1.51654637 3.11023041,1.97238637 C3.11023041,2.17680711 3.06230415,4.54909156 3.06230415,5.64876563 L3.06230415,7.00008711 C3.06230415,7.26702044 3.06230415,10.6611804 3.11023041,11.3052427 C3.45907834,11.3369553 6.60101382,11.3679834 7.09317972,11.3052427 C8.02912442,11.164019 8.98142857,9.27814637 9.20354839,8.66534044 C9.23534562,8.603056 9.26714286,8.57134341 9.3302765,8.603056 L9.58419355,8.69705304 C9.6318894,8.72830933 9.6318894,8.7442797 9.61599078,8.83827674 C9.56852535,8.94824415 8.9335023,11.5409197 8.83857143,11.9650471 C8.63211982,11.949533 7.39456221,11.9337908 5.98235023,11.9337908 C4.56990783,11.9178204 3.01483871,11.9178204 2.15815668,11.9178204 C1.53903226,11.9178204 1.07912442,11.9337908 0.7459447,11.9337908 C0.42843318,11.949533 0.238110599,11.9650471 0.127050691,11.9650471 C0.0157603687,11.9650471 9.21658986e-05,11.9337908 9.21658986e-05,11.8550797 L9.21658986e-05,11.4622086 C9.21658986e-05,11.3839538 0.0157603687,11.3522412 0.111152074,11.3522412 L0.872672811,11.3522412 C1.45976959,11.3522412 1.55516129,11.1323064 1.55516129,10.9281138 C1.55516129,10.6294679 1.60262673,6.71718341 1.60262673,5.75873304 L1.60262673,4.87899378 Z" id="Fill-3" fill="#C3BE66"></path>
                    <path d="M14.8052995,5.3347197 C14.8052995,4.95781896 14.7578341,2.12923822 14.7417051,1.89401748 C14.7103687,1.51666044 14.5513825,1.35946637 13.9486175,1.35946637 L13.0281106,1.35946637 C12.9488479,1.35946637 12.9013825,1.32843822 12.9013825,1.26546933 L12.9013825,0.841341926 C12.9013825,0.778601185 12.9488479,0.746888593 13.0124424,0.746888593 C13.202765,0.746888593 14.0119816,0.793887111 15.487788,0.793887111 C16.9,0.793887111 17.4076037,0.746888593 17.6297235,0.746888593 C17.7092166,0.746888593 17.7407834,0.793887111 17.7407834,0.856856 L17.7407834,1.24949896 C17.7407834,1.32843822 17.693318,1.35946637 17.6140553,1.35946637 L16.8682028,1.35946637 C16.5506912,1.35946637 16.3129032,1.48540415 16.3129032,1.799336 C16.3129032,1.95698637 16.264977,5.42894489 16.264977,5.61762341 L16.264977,6.82726489 C16.264977,6.98468711 16.3129032,10.6140679 16.3129032,10.7865479 C16.3129032,11.2738723 16.5506912,11.3521271 17.0585253,11.3521271 L17.7092166,11.3521271 C17.7884793,11.3521271 17.8361751,11.3838397 17.8361751,11.4620945 L17.8361751,11.870936 C17.8361751,11.9336767 17.7884793,11.964933 17.693318,11.964933 C17.5029954,11.964933 16.8682028,11.9179345 15.487788,11.9179345 C13.9804147,11.9179345 13.2979263,11.964933 13.1235023,11.964933 C13.0440092,11.964933 12.9963134,11.9336767 12.9963134,11.870936 L12.9963134,11.4468086 C12.9963134,11.3838397 13.0440092,11.3521271 13.1235023,11.3521271 L14.0119816,11.3521271 C14.3292627,11.3521271 14.6624424,11.3051286 14.7260369,10.8969716 C14.7578341,10.6612945 14.8052995,7.26713452 14.8052995,6.43439378 L14.8052995,5.3347197 Z" id="Fill-5" fill="#C3BE66"></path>
                    <path d="M23.9452535,2.83665719 C23.9452535,1.90946311 23.4692166,1.39133867 22.8980184,1.3753683 L22.2473272,1.35962607 C22.1680645,1.35962607 22.1523963,1.29665719 22.1523963,1.24965867 L22.1523963,0.84150163 C22.1523963,0.778532741 22.1680645,0.746820148 22.2473272,0.746820148 C22.3265899,0.746820148 22.4537788,0.76256237 22.6915668,0.76256237 C22.9298157,0.778532741 23.278894,0.793818667 23.8185253,0.793818667 C24.3576959,0.793818667 24.691106,0.76256237 24.8814286,0.76256237 C25.0878802,0.76256237 25.2146083,0.825531259 25.3417972,0.966754963 L28.6738249,5.24065422 C28.8484793,5.46058904 31.5300461,8.71306904 31.9111521,9.21567941 L31.9742857,9.21567941 L31.9742857,7.34577719 C31.9742857,5.94745719 31.9586175,5.17768533 31.9268203,4.39194311 C31.9111521,3.77936533 31.8314286,2.23936533 31.7364977,1.97220385 C31.6093088,1.57956089 31.3079263,1.35962607 30.8636866,1.35962607 L30.3560829,1.35962607 C30.2924885,1.35962607 30.2606912,1.32836978 30.2606912,1.24965867 L30.2606912,0.84150163 C30.2606912,0.778532741 30.2924885,0.746820148 30.3560829,0.746820148 C30.5782028,0.746820148 31.0858065,0.793818667 32.1014747,0.793818667 C33.0535484,0.793818667 33.434424,0.746820148 33.6404147,0.746820148 C33.7514747,0.746820148 33.7676037,0.793818667 33.7676037,0.856787556 L33.7676037,1.24965867 C33.7676037,1.31239941 33.7358065,1.35962607 33.672212,1.35962607 L33.243871,1.35962607 C32.81553,1.35962607 32.6567742,1.62655941 32.624977,2.22385126 C32.5616129,3.27652681 32.5616129,4.83181274 32.5616129,5.853232 L32.5616129,11.7296439 C32.5616129,11.9495787 32.5457143,12.1065446 32.4821198,12.1065446 C32.2917972,12.1065446 32.1489401,11.9178661 32.1014747,11.8548972 L30.16553,9.43561422 C29.0547005,8.06855052 27.8964055,6.62300385 27.8010138,6.52900681 C27.6268203,6.37204089 24.7070046,2.7419757 24.6116129,2.61672237 L24.5164516,2.61672237 L24.5164516,6.10442311 C24.5164516,7.565712 24.6434101,10.126675 24.6752074,10.4412913 C24.7385714,11.0540972 24.8339631,11.3522868 25.2623041,11.3522868 L25.7381106,11.3522868 C25.8496313,11.3522868 25.8652995,11.3997416 25.8652995,11.4939668 L25.8652995,11.8396113 C25.8652995,11.9338364 25.8496313,11.9648646 25.7381106,11.9648646 C25.5795853,11.9648646 24.6277419,11.9178661 24.1991705,11.9178661 C23.8659908,11.9178661 22.7710599,11.9648646 22.6123041,11.9648646 C22.5489401,11.9648646 22.5330415,11.9338364 22.5330415,11.8548972 L22.5330415,11.4467401 C22.5330415,11.3997416 22.5489401,11.3522868 22.6282028,11.3522868 L23.1678341,11.3522868 C23.6277419,11.3522868 23.8023963,11.1640646 23.881659,10.3942927 C23.9134562,10.0954187 23.9452535,8.30422756 23.9452535,5.50758756 L23.9452535,2.83665719 Z" id="Fill-7" fill="#C3BE66"></path>
                    <path d="M47.31947,8.4455197 C47.31947,7.88039674 47.1448157,7.72274637 46.6687788,7.72274637 L46.0024194,7.72274637 C45.9231567,7.72274637 45.8913594,7.69171822 45.8913594,7.62874933 L45.8913594,7.23587822 C45.8913594,7.14188119 45.9072581,7.11016859 45.9865207,7.11016859 C46.208871,7.11016859 46.9226959,7.15716711 48.0019585,7.15716711 C49.1443548,7.15716711 49.6521889,7.11016859 49.8743088,7.11016859 C49.9853687,7.11016859 50.0012673,7.15716711 50.0012673,7.220136 L50.0012673,7.59749304 C50.0012673,7.66000563 49.9853687,7.72274637 49.8902074,7.72274637 L49.2713134,7.72274637 C48.9855991,7.72274637 48.7791475,7.83271378 48.7791475,8.32026637 L48.7791475,10.394133 C48.7791475,10.6140679 48.8427419,10.7712619 48.8427419,10.8969716 C48.8427419,11.0222249 48.7478111,11.0851938 48.5888249,11.1481627 C47.3038018,11.7919967 46.0342166,12.1536116 44.2570276,12.1536116 C42.8448157,12.1536116 40.9086406,11.6350308 39.8139401,10.3624204 C38.8461982,9.27826044 38.3540323,7.94268119 38.3540323,6.04152267 C38.3540323,4.61194637 38.9729263,3.08791674 40.1471198,2.05098341 C41.2736175,1.09253304 42.7019585,0.55866637 44.606106,0.55866637 C45.9708525,0.55866637 47.1927419,1.06127674 47.7321429,1.46943378 C47.9065668,1.61111378 48.0019585,1.57940119 48.0971198,1.45414785 L48.3351382,1.17124415 C48.3985023,1.10850341 48.4620968,1.02956415 48.5570276,1.02956415 C48.668318,1.02956415 48.6998848,1.10850341 48.6998848,1.21847081 L48.7478111,4.21930341 C48.7478111,4.29801452 48.731682,4.36098341 48.668318,4.36098341 L48.3826037,4.39201156 C48.3192396,4.39201156 48.2715438,4.34501304 48.2556452,4.26630193 C48.1289171,3.8264323 47.8591014,3.08791674 47.3038018,2.41214193 C46.827765,1.83104859 45.8436636,1.12378933 44.415553,1.12378933 C43.3208525,1.12378933 42.3369816,1.39117896 41.3849078,2.396856 C40.5279954,3.29233748 39.9885945,4.59620415 39.9885945,6.01049452 C39.9885945,7.86442637 40.5123272,9.48268119 41.4959677,10.4096471 C42.2892857,11.1639049 43.2572581,11.5250634 44.2888249,11.5250634 C45.5581797,11.5250634 46.3355991,11.3051286 46.8908986,10.9911967 C47.2558756,10.7712619 47.31947,10.4253893 47.31947,9.60861896 L47.31947,8.4455197 Z" id="Fill-9" fill="#C3BE66"></path>
                    <path d="M64.5373502,9.37282785 C64.5373502,10.8181464 64.886659,11.4622086 66.2034793,11.4622086 C67.5364286,11.4622086 68.7580876,10.8341167 68.7580876,8.96421452 C68.7580876,7.69160415 68.1076267,6.85886341 67.1712212,6.49724859 C66.5209908,6.24628563 65.7749078,6.23031526 65.0451843,6.23031526 L64.5373502,6.23031526 L64.5373502,9.37282785 Z M64.5373502,5.69644859 C64.8387327,5.72747674 65.1085484,5.72747674 65.3783641,5.72747674 C66.2827419,5.72747674 66.9970276,5.58648119 67.3776728,5.31886341 C68.0281336,4.83199526 68.2663825,4.1251923 68.2663825,3.43367526 C68.2663825,2.83661156 68.0758295,2.20806341 67.4887327,1.78416415 C66.917765,1.39129304 66.1242166,1.24961304 65.3147696,1.24961304 C65.0926498,1.24961304 64.9179954,1.23364267 64.7912673,1.26535526 C64.6640783,1.29661156 64.5691475,1.40657896 64.5691475,1.54825896 C64.5530184,1.86241896 64.5373502,3.22948267 64.5373502,4.53334933 L64.5373502,5.69644859 Z M63.1408065,5.08364267 C63.1408065,4.50209304 63.1090092,2.58496415 63.093341,2.30228859 C63.0458756,1.39129304 62.7919585,1.35958044 62.0620046,1.35958044 L61.5700691,1.35958044 C61.4746774,1.35958044 61.4431106,1.32832415 61.4431106,1.24961304 L61.4431106,0.856741926 C61.4431106,0.778487111 61.4746774,0.746774519 61.5700691,0.746774519 C61.8239862,0.746774519 62.5380415,0.793773037 63.6804378,0.793773037 C64.1882719,0.793773037 65.1401152,0.746774519 65.6956452,0.746774519 C66.9334332,0.746774519 67.948871,0.856741926 68.5041705,1.17135822 C69.4087788,1.65822637 69.7260599,2.3809997 69.7260599,3.30773748 C69.7260599,4.86370785 69.0281336,5.25589452 67.7903456,5.90041304 L67.8378111,5.93166933 C69.3769816,6.43450785 70.4085484,7.3776723 70.4085484,9.04292563 C70.4085484,9.84395378 69.9166129,10.9440841 69.186659,11.399696 C68.5202995,11.807853 67.6156912,11.9650471 66.1557834,11.9650471 C65.0608525,11.9650471 64.4419585,11.9178204 63.7755991,11.9178204 C62.9822811,11.9178204 62.046106,11.9650471 61.7444931,11.9650471 C61.5541705,11.9650471 61.5223733,11.9337908 61.5223733,11.8708219 L61.5223733,11.4622086 C61.5223733,11.3839538 61.5541705,11.3522412 61.6652304,11.3522412 L62.4269816,11.3522412 C62.9186866,11.3522412 62.9979493,11.164019 63.0615438,10.6611804 C63.1090092,10.2995656 63.1408065,8.22569896 63.1408065,6.93711822 L63.1408065,5.08364267 Z" id="Fill-11" fill="#C3BE66"></path>
                    <path d="M85.308894,6.62311793 C85.308894,3.1824157 82.8335484,1.15554756 81.0722581,1.15554756 C80.8342396,1.15554756 79.7552074,0.966640889 78.5648848,2.08228533 C77.5019816,3.08773422 76.9784793,4.67496089 76.9784793,5.96331348 C76.9784793,10.0955327 79.8821659,11.5568216 81.2310138,11.5568216 C84.7217972,11.5568216 85.308894,8.02143793 85.308894,6.62311793 M77.6923041,11.1322379 C76.565576,10.4566913 75.3598157,8.75995348 75.3598157,6.466152 C75.3598157,5.50770163 75.6137327,4.01515644 76.8356221,2.55386756 C78.2317051,0.872643852 79.8026728,0.558483852 81.1356221,0.558483852 C82.1353917,0.558483852 83.4365438,0.762676444 84.69,1.79938163 C85.8485253,2.78954459 86.8639631,4.3290883 86.8639631,6.4974083 C86.8639631,7.64453719 86.4989862,8.8382083 85.673871,9.93856681 C84.706129,11.210949 83.2939171,12.1536572 81.1038249,12.1536572 C80.3264055,12.1536572 78.9459908,11.9024661 77.6923041,11.1322379" id="Fill-13" fill="#C3BE66"></path>
                    <path d="M94.558894,9.37282785 C94.558894,10.8181464 94.9082028,11.4622086 96.225023,11.4622086 C97.5579724,11.4622086 98.7796313,10.8341167 98.7796313,8.96421452 C98.7796313,7.69160415 98.1291705,6.85886341 97.192765,6.49724859 C96.5425346,6.24628563 95.7964516,6.23031526 95.0667281,6.23031526 L94.558894,6.23031526 L94.558894,9.37282785 Z M94.558894,5.69644859 C94.8602765,5.72747674 95.1300922,5.72747674 95.3999078,5.72747674 C96.3042857,5.72747674 97.0185714,5.58648119 97.3992166,5.31886341 C98.0496774,4.83199526 98.2879263,4.1251923 98.2879263,3.43367526 C98.2879263,2.83661156 98.0973733,2.20806341 97.5102765,1.78416415 C96.9390783,1.39129304 96.1457604,1.24961304 95.3363134,1.24961304 C95.1141935,1.24961304 94.9395392,1.23364267 94.8128111,1.26535526 C94.6856221,1.29661156 94.5906912,1.40657896 94.5906912,1.54825896 C94.5745622,1.86241896 94.558894,3.22948267 94.558894,4.53334933 L94.558894,5.69644859 Z M93.1623502,5.08364267 C93.1623502,4.50209304 93.130553,2.58496415 93.1148848,2.30228859 C93.0674194,1.39129304 92.8135023,1.35958044 92.0835484,1.35958044 L91.5916129,1.35958044 C91.4962212,1.35958044 91.4646544,1.32832415 91.4646544,1.24961304 L91.4646544,0.856741926 C91.4646544,0.778487111 91.4962212,0.746774519 91.5916129,0.746774519 C91.84553,0.746774519 92.5595853,0.793773037 93.7019816,0.793773037 C94.2095853,0.793773037 95.161659,0.746774519 95.7171889,0.746774519 C96.954977,0.746774519 97.9704147,0.856741926 98.5257143,1.17135822 C99.4303226,1.65822637 99.7476037,2.3809997 99.7476037,3.30773748 C99.7476037,4.86370785 99.0496774,5.25589452 97.8118894,5.90041304 L97.8593548,5.93166933 C99.3985253,6.43450785 100.430092,7.3776723 100.430092,9.04292563 C100.430092,9.84395378 99.9381567,10.9440841 99.2082028,11.399696 C98.5418433,11.807853 97.637235,11.9650471 96.1773272,11.9650471 C95.0823963,11.9650471 94.4635023,11.9178204 93.7971429,11.9178204 C93.0038249,11.9178204 92.0676498,11.9650471 91.7660369,11.9650471 C91.5757143,11.9650471 91.5439171,11.9337908 91.5439171,11.8708219 L91.5439171,11.4622086 C91.5439171,11.3839538 91.5757143,11.3522412 91.6867742,11.3522412 L92.4485253,11.3522412 C92.9402304,11.3522412 93.0194931,11.164019 93.0830876,10.6611804 C93.130553,10.2995656 93.1623502,8.22569896 93.1623502,6.93711822 L93.1623502,5.08364267 Z" id="Fill-15" fill="#C3BE66"></path>
                    <path d="M113.934447,11.3368868 C113.744124,11.1952068 113.648733,11.1482083 113.56947,11.1482083 C113.474309,11.1482083 113.410945,11.2581757 113.315553,11.4151416 C113.220622,11.5880779 113.141129,11.6038201 113.030069,11.6038201 C112.934908,11.6038201 112.855415,11.525109 112.887212,11.3521727 C112.950576,10.9595298 113.109332,8.96414607 113.157028,8.50853422 C113.172696,8.41430904 113.204493,8.41430904 113.268088,8.41430904 L113.505876,8.43027941 C113.56947,8.43027941 113.601267,8.46130756 113.601267,8.55553274 C113.616935,9.05837126 113.648733,9.576952 114.172696,10.3784364 C114.648502,11.116952 115.521313,11.5410794 116.394124,11.5410794 C117.345968,11.5410794 118.551959,10.9595298 118.551959,9.5456957 C118.551959,7.92744089 117.377765,7.32992089 116.10841,6.89005126 C115.616705,6.71734311 114.474078,6.324472 113.79159,5.61766904 C113.268088,5.09886015 112.998272,4.36080089 112.998272,3.32363941 C112.998272,2.53789719 113.490207,1.76812533 113.981912,1.31251348 C114.553341,0.778418667 115.346659,0.558483852 116.203571,0.558483852 C117.10818,0.558483852 117.806336,0.825645333 118.075922,0.951354963 C118.218779,1.02960978 118.298272,1.01386756 118.377535,0.935612741 L118.583756,0.746706074 C118.663249,0.683965333 118.710714,0.652709037 118.789977,0.652709037 C118.86947,0.652709037 118.917166,0.778418667 118.917166,0.91964237 C118.917166,1.46947941 119.123157,3.0724483 119.139286,3.41763644 C119.139286,3.4965757 119.123157,3.52760385 119.059793,3.54357422 L118.86947,3.59057274 C118.821774,3.60654311 118.789977,3.59057274 118.774309,3.54357422 C118.64735,3.08773422 118.440899,2.47515644 117.790438,1.79938163 C117.362097,1.34422607 116.806567,1.12383496 116.060945,1.12383496 C114.648502,1.12383496 114.140899,2.16099644 114.140899,2.96248089 C114.140899,3.40235052 114.23606,3.92047496 114.632604,4.3290883 C115.092742,4.7849283 115.981452,5.13057274 116.44159,5.27179644 C117.53629,5.61766904 118.42523,5.88460237 118.996429,6.57611941 C119.408871,7.06298756 119.694585,7.67579348 119.694585,8.71295496 C119.694585,10.5666587 118.551959,12.1536572 116.457488,12.1536572 C115.346659,12.1536572 114.56924,11.823755 113.934447,11.3368868" id="Fill-17" fill="#C3BE66"></path>
                    <g id="Group-21" transform="translate(123.502304, 0.180762)">
                        <mask id="mask-2" fill="white">
                            <use xlink:href="#path-1"></use>
                        </mask>
                        <g id="Clip-20"></g>
                        <path d="M4.90400922,1.17877304 L4.50723502,1.17877304 C3.99940092,1.17877304 2.61898618,1.17877304 2.00009217,1.36745156 C1.28603687,1.58738637 0.81,2.68706044 0.587880184,3.18989896 C0.556082949,3.26861007 0.508617512,3.28458044 0.429354839,3.26861007 L0.143640553,3.18989896 C0.0959447005,3.17461304 0.0484792627,3.15864267 0.0800460829,3.06396119 C0.238801843,2.49883822 0.794331797,0.471970074 0.825668203,0.299033778 C0.857465438,0.0950693333 0.921059908,0.0473863704 0.984654378,0.0473863704 C1.06391705,0.0473863704 1.11138249,0.0633567407 1.17497696,0.110355259 L1.38142857,0.252035259 C1.66691244,0.455999704 1.8256682,0.50322637 2.28580645,0.518968593 C3.12682028,0.550224889 3.79317972,0.613193778 5.28465438,0.613193778 L6.04640553,0.613193778 C7.77612903,0.613193778 8.4583871,0.550224889 9.23580645,0.518968593 C9.58511521,0.50322637 9.79133641,0.455999704 10.0611521,0.299033778 L10.3625346,0.110355259 C10.4420276,0.0633567407 10.4894931,0.0473863704 10.5530876,0.0473863704 C10.6323502,0.0473863704 10.6641475,0.0950693333 10.6959447,0.299033778 C10.7277419,0.487712296 11.0291244,2.43586933 11.1558525,3.12693007 C11.1719816,3.20564119 11.1401843,3.23689748 11.0609217,3.25286785 L10.8070046,3.31560859 C10.7434101,3.33157896 10.7277419,3.31560859 10.6798157,3.20564119 C10.5530876,2.90699526 10.0770507,1.69735378 9.55331797,1.44570637 C9.07728111,1.21048563 7.58580645,1.17877304 6.80792627,1.17877304 L6.36368664,1.17877304 L6.36368664,5.65663674 C6.36368664,5.87657156 6.36368664,10.2759523 6.37981567,10.5433419 C6.41138249,10.936213 6.53834101,11.1714338 6.91898618,11.1714338 L7.91898618,11.1714338 C8.0616129,11.1714338 8.07751152,11.2191167 8.07751152,11.3290841 L8.07751152,11.6589864 C8.07751152,11.7372412 8.0616129,11.7842397 7.91898618,11.7842397 C7.76023041,11.7842397 7.25262673,11.7372412 5.69732719,11.7372412 C4.1740553,11.7372412 3.50746544,11.7842397 3.28534562,11.7842397 C3.15861751,11.7842397 3.14248848,11.7217271 3.14248848,11.6272738 L3.14248848,11.3290841 C3.14248848,11.2191167 3.15861751,11.1714338 3.25354839,11.1714338 L4.33258065,11.1714338 C4.65009217,11.1714338 4.84041475,10.9832116 4.85654378,10.794533 C4.90400922,10.338693 4.90400922,5.51564119 4.90400922,5.21676711 L4.90400922,1.17877304 Z" id="Fill-19" fill="#C3BE66" mask="url(#mask-2)"></path>
                    </g>
                    <path d="M154.811935,9.37282785 C154.811935,10.8181464 155.160783,11.4622086 156.478065,11.4622086 C157.811014,11.4622086 159.032673,10.8341167 159.032673,8.96421452 C159.032673,7.69160415 158.382212,6.85886341 157.446037,6.49724859 C156.795576,6.24628563 156.049493,6.23031526 155.31977,6.23031526 L154.811935,6.23031526 L154.811935,9.37282785 Z M154.811935,5.69644859 C155.113318,5.72747674 155.383134,5.72747674 155.652949,5.72747674 C156.557327,5.72747674 157.271613,5.58648119 157.652258,5.31886341 C158.302719,4.83199526 158.540968,4.1251923 158.540968,3.43367526 C158.540968,2.83661156 158.350415,2.20806341 157.763318,1.78416415 C157.191889,1.39129304 156.398802,1.24961304 155.589355,1.24961304 C155.367235,1.24961304 155.192581,1.23364267 155.065853,1.26535526 C154.938664,1.29661156 154.843733,1.40657896 154.843733,1.54825896 C154.827604,1.86241896 154.811935,3.22948267 154.811935,4.53334933 L154.811935,5.69644859 Z M153.415392,5.08364267 C153.415392,4.50209304 153.383825,2.58496415 153.367926,2.30228859 C153.320461,1.39129304 153.066544,1.35958044 152.33659,1.35958044 L151.844654,1.35958044 C151.749263,1.35958044 151.717696,1.32832415 151.717696,1.24961304 L151.717696,0.856741926 C151.717696,0.778487111 151.749263,0.746774519 151.844654,0.746774519 C152.098571,0.746774519 152.812627,0.793773037 153.955023,0.793773037 C154.462627,0.793773037 155.414931,0.746774519 155.97023,0.746774519 C157.208018,0.746774519 158.223456,0.856741926 158.778756,1.17135822 C159.683364,1.65822637 160.000645,2.3809997 160.000645,3.30773748 C160.000645,4.86370785 159.302719,5.25589452 158.064931,5.90041304 L158.112396,5.93166933 C159.651567,6.43450785 160.683134,7.3776723 160.683134,9.04292563 C160.683134,9.84395378 160.191198,10.9440841 159.461244,11.399696 C158.794885,11.807853 157.890276,11.9650471 156.430599,11.9650471 C155.335438,11.9650471 154.716544,11.9178204 154.050184,11.9178204 C153.256866,11.9178204 152.320461,11.9650471 152.019078,11.9650471 C151.828756,11.9650471 151.796959,11.9337908 151.796959,11.8708219 L151.796959,11.4622086 C151.796959,11.3839538 151.828756,11.3522412 151.939816,11.3522412 L152.701567,11.3522412 C153.193272,11.3522412 153.272535,11.164019 153.336129,10.6611804 C153.383825,10.2995656 153.415392,8.22569896 153.415392,6.93711822 L153.415392,5.08364267 Z" id="Fill-22" fill="#C3BE66"></path>
                    <path d="M181.851889,5.90041304 C181.979078,5.90041304 183.676774,5.83744415 183.866866,5.80618785 C184.327235,5.72747674 184.454194,5.60176711 184.59682,5.11489896 C184.644977,4.95770489 184.70788,4.64331674 184.724009,4.34489896 C184.724009,4.26618785 184.771475,4.2351597 184.835069,4.2351597 L185.231613,4.25044563 C185.311336,4.25044563 185.342673,4.31341452 185.326774,4.37615526 C185.279309,4.64331674 185.279309,5.93166933 185.279309,6.16734637 C185.279309,6.71718341 185.342673,7.47166933 185.3747,7.80157156 C185.3747,7.88028267 185.342673,7.91153896 185.279309,7.92728119 L184.93,7.97450785 C184.850968,7.99025007 184.81894,7.94279526 184.803502,7.83282785 C184.771475,7.62863526 184.676313,7.26702044 184.628848,7.09476859 C184.533917,6.76418193 184.359263,6.52896119 183.94659,6.48196267 C183.200507,6.40325156 182.106037,6.40325156 181.851889,6.40325156 L181.851889,7.37744415 C181.851889,8.22547081 181.883456,9.74972859 181.883456,10.0638886 C181.899355,10.8811153 182.296129,11.1952753 182.787834,11.2892723 C183.105576,11.3522412 183.565714,11.399696 183.962488,11.399696 C184.232304,11.399696 185.025622,11.3839538 185.358802,11.3522412 C185.628387,11.3209849 186.326774,11.1480486 186.738986,10.8024041 C186.929539,10.6454382 187.818018,9.51405156 188.040138,9.15289304 C188.088295,9.07418193 188.13576,9.01121304 188.230922,9.05821156 L188.485069,9.19989156 C188.564101,9.24689007 188.564101,9.29411674 188.516406,9.41982637 L187.675622,11.7295982 C187.627926,11.8708219 187.516866,11.9650471 187.326313,11.9650471 C187.24682,11.9650471 186.898203,11.949533 185.945668,11.9337908 C184.993594,11.9337908 183.454654,11.9178204 180.979539,11.9178204 C180.391982,11.9178204 179.947972,11.9337908 179.63023,11.9337908 C179.297512,11.949533 179.090829,11.9650471 178.948203,11.9650471 C178.852811,11.9650471 178.805346,11.9337908 178.805346,11.8550797 L178.805346,11.4309523 C178.805346,11.3679834 178.852811,11.3522412 178.963871,11.3522412 L179.598664,11.3522412 C180.328618,11.3522412 180.391982,11.2422738 180.391982,10.6611804 L180.391982,5.39757452 C180.391982,4.0934797 180.360645,2.1293523 180.344516,1.97238637 C180.280922,1.46954785 180.122396,1.35958044 179.535069,1.35958044 L178.963871,1.35958044 C178.884839,1.35958044 178.837373,1.34429452 178.837373,1.24961304 L178.837373,0.82548563 C178.837373,0.778487111 178.86871,0.746774519 178.948203,0.746774519 C179.297512,0.746774519 179.85235,0.793773037 180.899816,0.793773037 L181.598203,0.793773037 C183.169171,0.793773037 184.739908,0.778487111 186.310876,0.778487111 C186.565023,0.778487111 186.866175,0.746774519 186.945668,0.746774519 C187.0247,0.746774519 187.056728,0.778487111 187.072627,0.82548563 L187.881613,3.35542044 C187.897742,3.41770489 187.897742,3.46538785 187.834147,3.496416 L187.595899,3.62235378 C187.548433,3.65361007 187.484839,3.60638341 187.469401,3.57535526 C187.437373,3.51238637 186.26318,2.01938489 185.882535,1.78416415 C185.549355,1.56422933 185.104654,1.37532267 184.676313,1.35958044 L181.851889,1.29661156 L181.851889,5.90041304 Z" id="Fill-24" fill="#C3BE66"></path>
                    <g id="Group-28" transform="translate(192.857143, 0.408910)">
                        <mask id="mask-4" fill="white">
                            <use xlink:href="#path-3"></use>
                        </mask>
                        <g id="Clip-27"></g>
                        <path d="M1.21389401,10.9279769 C1.02334101,10.7862969 0.928179724,10.7392984 0.848686636,10.7392984 C0.75375576,10.7392984 0.69016129,10.8492658 0.595,11.0062317 C0.499608295,11.179168 0.420576037,11.1949102 0.309516129,11.1949102 C0.213894009,11.1949102 0.134861751,11.1161991 0.166428571,10.9432628 C0.229792627,10.5506199 0.388548387,8.55523615 0.436013825,8.0996243 C0.451912442,8.00539911 0.483940092,8.00539911 0.547073733,8.00539911 L0.785092166,8.02136948 C0.848686636,8.02136948 0.880253456,8.05239763 0.880253456,8.14662281 C0.896152074,8.64946133 0.928179724,9.16804207 1.45145161,9.96952652 C1.92771889,10.7080421 2.80029954,11.1321695 3.67334101,11.1321695 C4.62518433,11.1321695 5.83140553,10.5506199 5.83140553,9.13678578 C5.83140553,7.51853096 4.65721198,6.92101096 3.38762673,6.48114133 C2.89569124,6.30843319 1.75329493,5.91556207 1.07080645,5.20875911 C0.547073733,4.68995022 0.277488479,3.95189096 0.277488479,2.91472948 C0.277488479,2.12898726 0.769193548,1.35921541 1.26135945,0.903603556 C1.83278802,0.369508741 2.62610599,0.149573926 3.4825576,0.149573926 C4.3871659,0.149573926 5.085553,0.416735407 5.35513825,0.542445037 C5.49822581,0.620699852 5.57725806,0.60495763 5.65675115,0.526702815 L5.86297235,0.337796148 C5.94246544,0.275055407 5.98993088,0.243799111 6.06942396,0.243799111 C6.14868664,0.243799111 6.19615207,0.369508741 6.19615207,0.510732444 C6.19615207,1.06056948 6.40260369,2.66353837 6.41827189,3.00872652 C6.41827189,3.08766578 6.40260369,3.11869393 6.33923963,3.1346643 L6.14868664,3.18166281 C6.10099078,3.19763319 6.06942396,3.18166281 6.05352535,3.1346643 C5.92633641,2.6788243 5.72034562,2.06624652 5.06942396,1.3904717 C4.64131336,0.935316148 4.08601382,0.714925037 3.33993088,0.714925037 C1.92771889,0.714925037 1.42011521,1.75208652 1.42011521,2.55357096 C1.42011521,2.99344059 1.51504608,3.51156504 1.91182028,3.92017837 C2.37195853,4.37601837 3.26043779,4.72166281 3.72080645,4.86288652 C4.81596774,5.20875911 5.70421659,5.47569244 6.27564516,6.16720948 C6.68831797,6.65407763 6.97357143,7.26688356 6.97357143,8.30404504 C6.97357143,10.1577487 5.83140553,11.7447473 3.73670507,11.7447473 C2.62610599,11.7447473 1.84822581,11.414845 1.21389401,10.9279769" id="Fill-26" fill="#C3BE66" mask="url(#mask-4)"></path>
                    </g>
                    <g id="Group-31" transform="translate(136.175115, 0.180762)">
                        <mask id="mask-6" fill="white">
                            <use xlink:href="#path-5"></use>
                        </mask>
                        <g id="Clip-30"></g>
                        <path d="M3.76797235,6.80397096 C3.87903226,6.41109985 5.38640553,2.388848 5.4656682,2.18442726 C5.51336406,2.05848948 5.57672811,1.94852207 5.64032258,1.94852207 C5.68778802,1.94852207 5.71958525,2.05848948 5.76728111,2.16891319 C5.84654378,2.40436207 7.13179724,6.33238874 7.27465438,6.80397096 L3.76797235,6.80397096 Z M38.5211982,8.4815443 C38.5135945,8.47812207 38.5059908,8.47469985 38.4981567,8.47127763 C38.5364055,8.48816059 36.3631336,11.5848154 36.14447,11.8535739 C35.2502304,12.9518791 34.2638249,13.9796865 33.1758065,14.8918228 C28.1370968,19.1162139 21.3400922,20.5083739 15.5426267,17.1101073 C11.4640553,14.7193428 10.1778802,10.7723799 8.66221198,6.46790874 C7.92004608,4.360048 7.30460829,2.210208 6.62580645,0.0813576296 C6.04631336,0.429055407 5.46682028,0.776981333 4.88709677,1.12490726 C5.06082949,1.59899911 4.87995392,2.12077393 4.70023041,2.5925843 C3.75276498,5.07985541 2.80552995,7.56689837 1.85806452,10.0541695 C1.68341014,10.5125191 1.43847926,11.0342939 0.955069124,11.1396984 C0.726728111,11.1894347 0.479032258,11.1323976 0.260829493,11.2158999 C0.0428571429,11.2994021 -0.0794930876,11.6484687 0.132258065,11.7465724 C1.36428571,11.7479413 2.59631336,11.7493102 3.82834101,11.7506791 C3.87880184,11.5642821 3.85829493,11.3600895 3.77165899,11.1871532 C3.53018433,11.1146021 3.27142857,11.1819058 3.01935484,11.1862406 C2.76705069,11.1908036 2.47050691,11.0911028 2.40645161,10.8494939 C2.37281106,10.7219591 2.41382488,10.5882643 2.45506912,10.463011 C2.79700461,9.42151467 3.16728111,8.38891615 3.56520737,7.36704059 C4.87073733,7.36361837 6.17626728,7.359968 7.48179724,7.35631763 L8.89723502,11.2487532 C12.4764977,20.3233458 22.1221198,22.1252599 29.5718894,18.6624273 C30.635023,18.1682584 31.6523041,17.5753013 32.5836406,16.8666732 C35.3698157,14.7467206 37.483871,11.8334969 38.9163594,8.65676207 C38.7845622,8.59835615 38.6529954,8.53995022 38.5211982,8.4815443 L38.5211982,8.4815443 Z" id="Fill-29" fill="#C3BE66" mask="url(#mask-6)"></path>
                    </g>
                    <path d="M167.094355,4.87899378 C167.094355,3.87354489 167.062327,2.20806341 167.046889,1.9251597 C167.014862,1.51654637 166.935829,1.35958044 166.459562,1.35958044 L165.71371,1.35958044 C165.618548,1.35958044 165.60265,1.28132563 165.60265,1.20261452 L165.60265,0.856741926 C165.60265,0.778487111 165.618548,0.746774519 165.71371,0.746774519 C165.888134,0.746774519 166.459562,0.793773037 167.776843,0.793773037 C169.315553,0.793773037 169.982373,0.746774519 170.125,0.746774519 C170.252189,0.746774519 170.268088,0.793773037 170.268088,0.872712296 L170.268088,1.23364267 C170.268088,1.31258193 170.23606,1.35958044 170.108871,1.35958044 L169.157028,1.35958044 C168.665323,1.35958044 168.601728,1.51654637 168.601728,1.97238637 C168.601728,2.17680711 168.554263,4.54909156 168.554263,5.64876563 L168.554263,7.00008711 C168.554263,7.26702044 168.554263,10.6611804 168.601728,11.3052427 C168.950806,11.3369553 171.524309,11.3679834 172.016475,11.3052427 L171.473618,11.9337908 C170.061406,11.9178204 168.506567,11.9178204 167.649654,11.9178204 C167.03076,11.9178204 166.570622,11.9337908 166.237442,11.9337908 C165.920161,11.949533 165.729608,11.9650471 165.618548,11.9650471 C165.507488,11.9650471 165.49159,11.9337908 165.49159,11.8550797 L165.49159,11.4622086 C165.49159,11.3839538 165.507488,11.3522412 165.60265,11.3522412 L166.364401,11.3522412 C166.951267,11.3522412 167.046889,11.1323064 167.046889,10.9281138 C167.046889,10.6294679 167.094355,6.71718341 167.094355,5.75873304 L167.094355,4.87899378 Z" id="Fill-32" fill="#C3BE66"></path>
                </g>
            </g>
        </g>
    </g>
</svg>